# This file uses centimeters as units for non-parametric coordinates.

mtllib crapshootBackramp1.mtl
g default
v -4.168182 -0.088559 -4.173895
v -2.172690 -0.088559 1.681616
v -4.168182 1.140786 -4.173895
v -2.172690 1.140786 1.681616
v -3.036901 1.140786 -4.620861
v -1.100719 1.140786 -0.444215
v -3.036901 -0.088559 -4.620861
v -1.100719 -0.088559 -0.444215
v -3.865602 -0.088559 -2.992068
v -2.451172 -0.088559 -3.453421
v -2.451172 1.140786 -3.453421
v -3.865602 1.140786 -2.992068
v 1.711643 1.140786 -6.035885
v 1.808777 0.986427 -4.859848
v 1.808777 -0.088559 -4.859848
v 1.711643 -0.088559 -6.035885
v 2.877818 1.140786 -6.152024
v 2.794131 0.651460 -5.002839
v 2.794131 -0.088559 -5.002839
v 2.877818 -0.088559 -6.152024
v -3.263157 1.140786 -4.531468
v -2.714754 0.627131 -3.363295
v -1.314558 0.242221 -0.170207
v -1.314558 -0.088559 -0.170207
v -2.714754 -0.088559 -3.363295
v -3.263157 -0.088559 -4.531468
v -3.896674 1.140786 -4.281167
v -3.549303 0.627131 -3.100219
v -1.916083 0.242221 1.352806
v -1.916083 -0.088559 1.352806
v -3.549303 -0.088559 -3.100219
v -3.896674 -0.088559 -4.281167
v -3.945421 -0.088559 -3.226289
v -3.638081 -0.088559 -3.334264
v -2.715178 -0.088559 -3.538659
v -2.568318 -0.088559 -3.686909
v 1.796896 -0.088559 -5.070532
v 2.827847 -0.088559 -5.160991
v 2.827847 0.246367 -5.160991
v 1.795555 0.270677 -5.066340
v -2.568318 0.627131 -3.686909
v -2.715178 0.627131 -3.538659
v -3.638081 0.627131 -3.334264
v -3.945421 1.140786 -3.226289
v -4.104326 -0.088559 -3.986518
v -3.592570 -0.088559 -3.955539
v -3.175413 -0.088559 -4.344560
v -2.943185 -0.088559 -4.434070
v 1.721147 -0.088559 -5.867339
v 2.858392 -0.088559 -5.987773
v 2.858392 0.246367 -5.987773
v 1.722489 0.328254 -5.871531
v -2.943185 0.627131 -4.434070
v -3.175413 0.627131 -4.344560
v -3.592570 0.627131 -3.955539
v -4.104326 1.140786 -3.986518
v -3.217906 -0.088559 -4.549346
v -3.128967 -0.088559 -4.362462
v -2.663955 -0.088559 -3.556655
v -2.662038 -0.088559 -3.381321
v -1.271790 -0.088559 -0.225008
v -1.271790 1.140786 -0.225008
v -2.662038 1.140786 -3.381321
v -2.663955 0.627131 -3.556655
v -3.128967 0.627131 -4.362462
v -3.217906 1.140786 -4.549346
v -3.923825 1.140786 -4.270439
v -3.620438 1.140786 -3.944798
v -3.668815 1.140786 -3.323467
v -3.580933 1.140786 -3.089404
v -1.941744 1.140786 1.385687
v -1.941744 -0.088559 1.385687
v -3.580933 -0.088559 -3.089404
v -3.668815 -0.088559 -3.323467
v -3.620438 -0.088559 -3.944798
v -3.923825 -0.088559 -4.270439
v -2.704210 -0.088559 -3.515296
v -3.629203 -0.088559 -3.310860
v -3.660027 -0.088559 -3.300060
v -3.937439 -0.088559 -3.202866
v -3.937439 1.140786 -3.202866
v -3.660027 1.140786 -3.300060
v -3.629203 0.627131 -3.310859
v -2.704210 0.627131 -3.515295
v -2.652837 1.140786 -3.533294
v -2.556603 1.140786 -3.663560
v 1.798084 1.018862 -5.049463
v 2.825418 0.651460 -5.140459
v 2.825418 -0.088559 -5.140459
v 1.798084 -0.088559 -5.049463
v -2.556603 -0.088559 -3.663560
v -2.652837 -0.088559 -3.533295
v -4.110712 -0.088559 -4.005256
v -3.627468 -0.088559 -3.963522
v -3.599673 -0.088559 -3.974263
v -3.184187 -0.088559 -4.363251
v -3.137861 -0.088559 -4.381151
v -2.952556 -0.088559 -4.452749
v 1.720197 -0.088559 -5.884193
v 2.860335 -0.088559 -6.004199
v 2.860335 1.140786 -6.004199
v 1.720197 1.140786 -5.884193
v -2.952556 1.140786 -4.452749
v -3.137861 1.140786 -4.381150
v -3.184187 1.140786 -4.363251
v -3.599673 1.140786 -3.974263
v -3.627468 1.140786 -3.963522
v -4.110712 1.140786 -4.005256
v -3.251481 -0.088559 -1.063431
v -2.988561 -0.088559 -1.241167
v -2.959348 -0.088559 -1.260916
v -2.131648 -0.088559 -2.025108
v -2.082959 -0.088559 -2.058022
v -1.888204 -0.088559 -2.189678
v -1.888204 1.140786 -2.189678
v -2.082959 1.140786 -2.058022
v -2.131648 0.409593 -2.025108
v -2.959348 0.409593 -1.260916
v -2.988561 1.140786 -1.241167
v -3.251481 1.140786 -1.063431
v -3.661568 -0.088559 -3.662824
v -3.690749 -0.088559 -3.652057
v -4.079653 -0.088559 -3.630129
v -4.079653 1.140786 -3.630129
v -3.690749 1.140786 -3.652057
v -3.661568 0.627131 -3.662824
v -2.964516 0.627131 -3.975266
v -2.915881 0.627131 -3.993211
v -2.771407 0.627131 -4.091693
v 1.755970 0.301870 -5.502563
v 2.844395 0.246367 -5.608911
v 2.844395 -0.088559 -5.608911
v 1.755858 -0.088559 -5.502212
v -2.771407 -0.088559 -4.091693
v -2.915881 -0.088559 -3.993211
v -2.964516 -0.088559 -3.975266
v -3.076593 0.627131 -3.249233
v -3.105263 0.627131 -3.426657
v -3.115325 0.627131 -3.450039
v -3.245866 0.627131 -3.843279
v -3.396401 0.627131 -4.224035
v -3.404451 1.140786 -4.242740
v -3.577953 1.140786 -4.471087
v -3.577953 -0.088559 -4.471087
v -3.404451 -0.088559 -4.242739
v -3.396401 -0.088559 -4.224035
v -3.245866 -0.088559 -3.843279
v -3.115325 -0.088559 -3.450039
v -3.105263 -0.088559 -3.426658
v -3.076593 -0.088559 -3.249232
v -2.490517 -0.088559 -1.693774
v -1.552639 -0.088559 0.553761
v -1.552639 0.242221 0.553761
v -2.490517 0.409593 -1.693774
vt 0.375000 0.000000
vt 0.625000 0.000000
vt 0.375000 0.250000
vt 0.625000 0.250000
vt 0.375000 0.500000
vt 0.625000 0.500000
vt 0.375000 0.750000
vt 0.625000 0.750000
vt 0.375000 1.000000
vt 0.625000 1.000000
vt 0.875000 0.000000
vt 0.875000 0.250000
vt 0.125000 0.000000
vt 0.125000 0.250000
vt 0.425000 0.000000
vt 0.425000 1.000000
vt 0.425000 0.750000
vt 0.425000 0.500000
vt 0.425000 0.250000
vt 0.375000 0.500000
vt 0.425000 0.500000
vt 0.425000 0.750000
vt 0.375000 0.750000
vt 0.375000 0.500000
vt 0.425000 0.500000
vt 0.425000 0.750000
vt 0.375000 0.750000
vt 0.175000 0.250000
vt 0.375000 0.450000
vt 0.425000 0.450000
vt 0.625000 0.450000
vt 0.825000 0.250000
vt 0.625000 0.800000
vt 0.825000 0.000000
vt 0.425000 0.800000
vt 0.175000 0.000000
vt 0.375000 0.800000
vt 0.315000 0.250000
vt 0.375000 0.310000
vt 0.425000 0.310000
vt 0.625000 0.310000
vt 0.685000 0.250000
vt 0.625000 0.940000
vt 0.685000 0.000000
vt 0.425000 0.940000
vt 0.315000 0.000000
vt 0.375000 0.940000
vt 0.415000 0.000000
vt 0.415000 1.000000
vt 0.415000 0.940000
vt 0.415000 0.800000
vt 0.415000 0.750000
vt 0.415000 0.750000
vt 0.415000 0.750000
vt 0.415000 0.500000
vt 0.415000 0.500000
vt 0.415000 0.500000
vt 0.415000 0.450000
vt 0.415000 0.310000
vt 0.415000 0.250000
vt 0.383000 0.000000
vt 0.383000 1.000000
vt 0.383000 0.940000
vt 0.383000 0.800000
vt 0.383000 0.750000
vt 0.383000 0.750000
vt 0.383000 0.750000
vt 0.383000 0.500000
vt 0.383000 0.500000
vt 0.383000 0.500000
vt 0.383000 0.450000
vt 0.383000 0.310000
vt 0.383000 0.250000
vt 0.165000 0.000000
vt 0.375000 0.790000
vt 0.383000 0.790000
vt 0.415000 0.790000
vt 0.425000 0.790000
vt 0.625000 0.790000
vt 0.835000 0.000000
vt 0.625000 0.460000
vt 0.835000 0.250000
vt 0.425000 0.460000
vt 0.415000 0.460000
vt 0.383000 0.460000
vt 0.165000 0.250000
vt 0.375000 0.460000
vt 0.321000 0.250000
vt 0.375000 0.304000
vt 0.383000 0.304000
vt 0.415000 0.304000
vt 0.425000 0.304000
vt 0.625000 0.304000
vt 0.679000 0.250000
vt 0.625000 0.946000
vt 0.679000 0.000000
vt 0.425000 0.946000
vt 0.415000 0.946000
vt 0.383000 0.946000
vt 0.321000 0.000000
vt 0.375000 0.946000
vt 0.416000 0.800000
vt 0.416000 0.940000
vt 0.416000 0.946000
vt 0.416000 0.000000
vt 0.416000 1.000000
vt 0.416000 0.250000
vt 0.416000 0.304000
vt 0.416000 0.310000
vt 0.416000 0.450000
vt 0.416000 0.460000
vt 0.416000 0.500000
vt 0.416000 0.500000
vt 0.416000 0.500000
vt 0.416000 0.750000
vt 0.416000 0.750000
vt 0.416000 0.750000
vt 0.416000 0.790000
vt 0.382200 0.000000
vt 0.382200 1.000000
vt 0.382200 0.946000
vt 0.382200 0.940000
vt 0.382200 0.800000
vt 0.382200 0.790000
vt 0.382200 0.750000
vt 0.382200 0.750000
vt 0.382200 0.750000
vt 0.382200 0.500000
vt 0.382200 0.500000
vt 0.382200 0.500000
vt 0.382200 0.460000
vt 0.382200 0.450000
vt 0.382200 0.310000
vt 0.382200 0.304000
vt 0.382200 0.250000
vt 0.505969 0.000000
vt 0.505969 1.000000
vt 0.505969 0.946000
vt 0.505969 0.940000
vt 0.505969 0.800000
vt 0.505969 0.790000
vt 0.505969 0.750000
vt 0.505969 0.500000
vt 0.505969 0.460000
vt 0.505969 0.450000
vt 0.505969 0.310000
vt 0.505969 0.304000
vt 0.505969 0.250000
vt 0.397664 0.940000
vt 0.397664 0.946000
vt 0.397664 0.000000
vt 0.397664 1.000000
vt 0.397664 0.250000
vt 0.397664 0.304000
vt 0.397664 0.310000
vt 0.397664 0.450000
vt 0.397664 0.460000
vt 0.397664 0.500000
vt 0.397664 0.500000
vt 0.397664 0.500000
vt 0.397664 0.750000
vt 0.397664 0.750000
vt 0.397664 0.750000
vt 0.397664 0.790000
vt 0.397664 0.800000
vt 0.425000 0.389300
vt 0.416000 0.389300
vt 0.415000 0.389300
vt 0.397664 0.389300
vt 0.383000 0.389300
vt 0.382200 0.389300
vt 0.235700 0.250000
vt 0.375000 0.389300
vt 0.235700 0.000000
vt 0.375000 0.860700
vt 0.382200 0.860700
vt 0.383000 0.860700
vt 0.397664 0.860700
vt 0.415000 0.860700
vt 0.416000 0.860700
vt 0.425000 0.860700
vt 0.505969 0.860700
vt 0.625000 0.860700
vt 0.764300 0.000000
vt 0.625000 0.389300
vt 0.764300 0.250000
vt 0.505969 0.389300
vn -0.940220 0.000000 0.340568
vn -0.940220 0.000000 0.340568
vn -0.930708 0.000000 0.365764
vn -0.930708 0.000000 0.365764
vn -0.883650 0.253840 0.393354
vn -0.849217 0.368786 0.377924
vn -0.710727 0.593243 0.378062
vn -0.553941 0.773980 0.306764
vn 0.912340 0.000000 -0.409434
vn 0.912340 0.000000 -0.409434
vn 0.911525 0.000000 -0.411245
vn 0.911525 0.000000 -0.411245
vn -0.000000 -1.000000 0.000000
vn 0.000000 -1.000000 -0.000000
vn -0.000000 -1.000000 0.000000
vn -0.000000 -1.000000 0.000000
vn 0.913815 0.000000 0.406132
vn 0.929354 0.000000 0.369190
vn 0.788346 0.000000 0.615232
vn 0.788346 0.000000 0.615232
vn -0.367456 0.000000 -0.930041
vn -0.367456 0.000000 -0.930041
vn -0.212398 -0.000000 -0.977183
vn -0.212398 -0.000000 -0.977183
vn 0.000000 -1.000000 0.000000
vn 0.000000 -1.000000 0.000000
vn 0.000000 -1.000000 0.000000
vn 0.000000 -1.000000 0.000000
vn 0.999097 0.000000 0.042481
vn 0.998890 0.000000 0.047105
vn 0.975238 0.000000 0.221159
vn 0.977321 0.000000 0.211765
vn -0.786489 0.602773 -0.134535
vn -0.859313 0.391963 -0.328552
vn -0.604222 0.647553 -0.464317
vn -0.057064 0.996825 -0.055540
vn -0.948821 0.000000 0.315815
vn -0.948821 0.000000 0.315815
vn -0.946545 0.000000 0.322572
vn -0.946545 0.000000 0.322572
vn -0.155396 0.662821 -0.732476
vn -0.202041 0.639397 -0.741856
vn -0.292253 0.320081 -0.901186
vn -0.234723 0.306636 -0.922431
vn 0.313507 0.000000 0.949586
vn 0.313507 0.000000 0.949586
vn 0.288784 0.000000 0.957394
vn 0.292121 0.000000 0.956381
vn 0.000000 -1.000000 0.000000
vn 0.000000 -1.000000 0.000000
vn 0.000000 -1.000000 0.000000
vn 0.000000 -1.000000 0.000000
vn -0.288715 0.000000 -0.957415
vn -0.288715 0.000000 -0.957415
vn -0.250612 0.000000 -0.968088
vn -0.250612 0.000000 -0.968088
vn -0.036336 0.682050 -0.730402
vn -0.014341 0.223614 -0.974572
vn 0.143611 0.000000 0.989634
vn 0.143611 0.000000 0.989634
vn 0.000000 -1.000000 0.000000
vn 0.000000 -1.000000 0.000000
vn -0.099099 0.000000 -0.995078
vn -0.099099 0.000000 -0.995078
vn -0.000000 1.000000 0.000000
vn -0.000000 1.000000 0.000000
vn 0.698859 0.712529 -0.062443
vn 0.691851 0.673178 -0.261100
vn 0.066512 0.996841 0.043409
vn 0.070640 0.995024 0.070271
vn 0.749153 0.621631 -0.228791
vn 0.870282 0.371742 -0.323136
vn 0.891992 0.000000 0.452052
vn 0.900238 0.000000 0.435398
vn 0.930085 0.000000 0.367344
vn 0.930085 0.000000 0.367344
vn 0.000000 -1.000000 -0.000000
vn 0.000000 -1.000000 -0.000000
vn 0.000000 -1.000000 -0.000000
vn 0.000000 -1.000000 -0.000000
vn 0.000000 -1.000000 0.000000
vn 0.000000 -1.000000 0.000000
vn 0.000000 -1.000000 0.000000
vn 0.000000 -1.000000 0.000000
vn -0.367457 -0.000000 -0.930041
vn -0.367457 -0.000000 -0.930041
vn -0.501797 -0.000000 -0.864985
vn -0.501797 -0.000000 -0.864985
vn 0.728899 0.681477 -0.065532
vn 0.785811 0.542729 -0.296559
vn 0.847659 0.428063 -0.313427
vn 0.801451 0.506228 -0.318450
vn 0.788346 0.000000 0.615232
vn 0.788346 0.000000 0.615232
vn 0.000000 -1.000000 -0.000000
vn 0.000000 -1.000000 -0.000000
vn 0.000000 -1.000000 0.000000
vn 0.000000 -1.000000 0.000000
vn -0.367457 0.000000 -0.930041
vn -0.367457 0.000000 -0.930041
vn 0.000000 -1.000000 0.000000
vn 0.000000 -1.000000 0.000000
vn 0.000000 -1.000000 0.000000
vn 0.000000 -1.000000 0.000000
vn 0.000000 -1.000000 0.000000
vn 0.000000 -1.000000 0.000000
vn 0.000000 -1.000000 0.000000
vn 0.000000 -1.000000 0.000000
vn 0.000000 -1.000000 0.000000
vn 0.000000 -1.000000 0.000000
vn 0.000000 -1.000000 0.000000
vn 0.000000 -1.000000 0.000000
vn 0.000000 -1.000000 0.000000
vn 0.000000 -1.000000 0.000000
vn 0.000000 -1.000000 0.000000
vn 0.000000 -1.000000 0.000000
vn 0.999015 0.000000 0.044373
vn 0.998726 0.000000 0.050467
vn 0.999318 0.000000 0.036920
vn 0.999318 0.000000 0.036920
vn 0.118243 0.379548 0.917585
vn 0.249771 0.438662 0.863244
vn 0.071822 0.997246 0.018517
vn 0.053210 0.998010 0.033824
vn 0.289863 0.448813 0.845309
vn 0.073620 0.997184 0.014322
vn -0.000000 1.000000 0.000000
vn 0.000000 1.000000 -0.000000
vn 0.287627 0.601476 0.745317
vn 0.337076 0.680862 0.650236
vn -0.000000 1.000000 0.000000
vn 0.558790 0.577590 0.595100
vn 0.750372 0.556886 0.356117
vn 0.725274 0.686062 0.057414
vn 0.736898 0.648358 0.191346
vn 0.710537 0.701804 0.051067
vn -0.996590 0.000000 0.082511
vn -0.996590 0.000000 0.082511
vn -0.978846 0.000000 0.204600
vn -0.978846 0.000000 0.204600
vn 0.000000 -1.000000 0.000000
vn 0.000000 -1.000000 0.000000
vn 0.000000 -1.000000 0.000000
vn 0.000000 -1.000000 0.000000
vn 0.000000 -1.000000 0.000000
vn 0.000000 -1.000000 0.000000
vn 0.000000 -1.000000 0.000000
vn 0.000000 -1.000000 0.000000
vn 0.993079 0.000000 0.117450
vn 0.993078 0.000000 0.117453
vn 0.101442 0.213963 0.971560
vn 0.241249 0.277142 0.930049
vn 0.283228 0.295349 0.912442
vn 0.333121 0.379352 0.863205
vn 0.405563 0.472740 0.782327
vn 0.536234 0.616257 0.576785
vn 0.669395 0.560943 0.487087
vn 0.110736 0.990781 0.078040
vn -0.946545 0.000000 0.322572
vn -0.946545 0.000000 0.322572
vn -0.000000 -1.000000 0.000000
vn -0.000000 -1.000000 0.000000
vn 0.788346 0.000000 0.615232
vn 0.788346 0.000000 0.615232
vn -0.000000 1.000000 -0.000000
vn -0.000000 1.000000 -0.000000
vn -0.000000 1.000000 0.000000
vn -0.000000 1.000000 0.000000
vn -0.000000 1.000000 0.000000
vn 0.000000 1.000000 -0.000000
vn -0.000000 1.000000 0.000000
vn 0.000000 1.000000 -0.000000
vn 0.000000 1.000000 -0.000000
vn 0.788346 0.000000 0.615232
vn 0.788346 0.000000 0.615232
vn 0.000000 -1.000000 0.000000
vn 0.000000 -1.000000 0.000000
vn 0.000000 -1.000000 0.000000
vn 0.000000 -1.000000 0.000000
vn 0.000000 -1.000000 0.000000
vn 0.000000 -1.000000 0.000000
vn 0.000000 -1.000000 0.000000
vn -0.367456 0.000000 -0.930041
vn -0.367456 0.000000 -0.930041
vn 0.000000 -1.000000 0.000000
vn 0.000000 -1.000000 0.000000
vn 0.000000 -1.000000 0.000000
vn 0.000000 -1.000000 0.000000
vn -0.952251 0.000000 0.305316
vn -0.952251 0.000000 0.305316
vn 0.833128 0.483451 -0.268650
vn -0.000000 1.000000 0.000000
vn 0.754808 0.631898 -0.175981
vn 0.061788 0.993069 0.099981
vn -0.854310 0.391955 0.341357
vn -0.671866 0.652620 0.350261
vn 0.039207 0.998066 0.048240
vn 0.091565 0.993178 0.072207
vn 0.339117 0.933823 0.113900
vn 0.975119 0.000000 0.221684
vn 0.975119 0.000000 0.221684
vn 0.000000 -1.000000 0.000000
vn 0.000000 -1.000000 0.000000
vn 0.000000 -1.000000 0.000000
vn 0.000000 -1.000000 0.000000
vn 0.000000 -1.000000 0.000000
vn 0.000000 -1.000000 0.000000
vn 0.000000 -1.000000 0.000000
vn 0.000000 -1.000000 0.000000
vn 0.000000 -1.000000 0.000000
vn 0.000000 -1.000000 0.000000
vn 0.000000 -1.000000 0.000000
vn 0.000000 -1.000000 0.000000
vn 0.000000 -1.000000 0.000000
vn 0.000000 -1.000000 0.000000
vn 0.993079 0.000000 0.117453
vn 0.993079 0.000000 0.117453
vn 0.000000 1.000000 0.000000
vn 0.000000 1.000000 0.000000
vn 0.000000 1.000000 -0.000000
vn 0.000000 1.000000 -0.000000
vn 0.000000 1.000000 -0.000000
vn 0.000000 1.000000 -0.000000
vn -0.000000 1.000000 0.000000
vn 0.000000 1.000000 -0.000000
vn -0.000000 1.000000 0.000000
vn -0.946545 0.000000 0.322572
vn -0.946545 0.000000 0.322572
vn 0.913461 0.000000 -0.406926
vn 0.913461 0.000000 -0.406926
s 1
g pCube11
usemtl initialShadingGroup
f 120/148/1 109/136/2 2/2/3 4/4/4
s 2
f 62/81/5 116/144/6 117/145/7 23/31/8
s 3
f 114/142/9 115/143/10 6/6/11 8/8/12
s 4
f 24/33/13 112/140/14 113/141/15 61/79/16
s 5
f 23/32/17 24/34/18 61/80/19 62/82/20
s 6
f 66/86/21 57/74/22 26/36/23 21/28/24
s 4
f 35/51/25 59/77/26 92/118/27 77/102/28
s 8
f 38/54/29 39/55/30 88/114/31 89/115/32
s 2
f 84/110/33 85/111/34 64/84/35 42/58/36
s 1
f 44/60/37 33/48/38 80/105/39 81/107/40
s 2
f 40/56/41 41/57/42 86/112/43 87/113/44
s 12
f 11/18/45 10/17/46 15/22/47 14/21/48
s 4
f 90/116/49 91/117/50 36/52/51 37/53/52
s 6
f 7/7/53 5/5/54 13/20/55 16/23/56
s 2
f 39/55/57 40/56/41 87/113/44 88/114/58
s 12
f 14/21/48 15/22/47 19/26/59 18/25/60
s 4
f 89/115/61 90/116/49 37/53/52 38/54/62
s 6
f 16/23/56 13/20/55 17/24/63 20/27/64
s 2
f 138/167/65 139/168/66 43/59/67 83/109/68
f 153/185/69 154/187/70 118/146/71 29/41/72
s 5
f 29/42/73 30/44/74 152/184/75 153/186/76
s 4
f 30/43/77 111/139/78 151/182/79 152/183/80
f 34/50/81 148/179/82 149/180/83 78/103/84
s 6
f 143/172/85 144/174/86 32/46/87 27/38/88
s 2
f 43/59/67 69/91/89 82/108/90 83/109/68
f 29/41/72 118/146/71 119/147/91 71/93/92
s 5
f 71/94/93 72/96/94 30/44/74 29/42/73
s 4
f 72/95/95 110/138/96 111/139/78 30/43/77
f 78/103/84 79/104/97 74/98/98 34/50/81
s 6
f 27/38/88 32/46/87 76/100/99 67/88/100
s 4
f 121/149/101 122/150/102 75/99/103 46/63/104
f 46/63/104 146/177/105 147/178/106 121/149/101
f 47/64/107 58/76/108 135/164/109 136/165/110
f 133/162/111 134/163/112 48/65/113 49/66/114
f 132/161/115 133/162/111 49/66/114 50/67/116
s 8
f 50/67/117 51/68/118 131/160/119 132/161/120
s 2
f 51/68/121 52/69/122 130/159/123 131/160/124
f 52/69/122 53/70/125 129/158/126 130/159/123
f 127/156/127 128/157/128 65/85/129 54/71/130
f 140/169/131 141/170/132 55/72/133 126/155/134
f 55/72/133 68/90/135 125/154/136 126/155/134
s 1
f 56/73/137 45/61/138 123/151/139 124/153/140
s 4
f 94/121/141 95/122/142 46/63/104 75/99/103
f 95/122/142 145/176/143 146/177/105 46/63/104
f 96/123/144 97/124/145 58/76/108 47/64/107
f 49/66/114 48/65/113 98/125/146 99/126/147
f 50/67/116 49/66/114 99/126/147 100/127/148
s 8
f 100/127/149 101/128/150 51/68/118 50/67/117
s 2
f 101/128/151 102/129/152 52/69/122 51/68/121
f 102/129/152 103/130/153 53/70/125 52/69/122
f 104/131/154 105/132/155 54/71/130 65/85/129
f 141/170/132 142/171/156 106/133/157 55/72/133
f 106/133/157 107/134/158 68/90/135 55/72/133
s 1
f 108/135/159 93/119/160 45/61/138 56/73/137
s 4
f 97/124/145 98/125/146 48/65/113 58/76/108
f 134/163/112 135/164/109 58/76/108 48/65/113
f 91/117/50 92/118/27 59/77/26 36/52/51
f 61/79/16 113/141/15 114/142/161 8/8/162
s 5
f 62/82/20 61/80/19 8/11/163 6/12/164
s 2
f 115/143/165 116/144/6 62/81/5 6/6/166
f 41/57/42 64/84/35 85/111/34 86/112/43
f 53/70/125 65/85/129 128/157/128 129/158/126
f 103/130/153 104/131/154 65/85/129 53/70/125
s 6
f 7/13/53 57/74/22 66/86/21 5/14/54
s 2
f 107/134/158 108/135/167 56/73/168 68/90/135
f 124/153/169 125/154/136 68/90/135 56/73/168
f 81/107/170 82/108/90 69/91/89 44/60/171
f 71/93/92 119/147/91 120/148/172 4/4/173
s 5
f 2/2/174 72/96/94 71/94/93 4/4/175
s 4
f 109/137/176 110/138/96 72/95/95 2/10/177
f 33/49/178 74/98/98 79/104/97 80/106/179
f 45/62/180 75/99/103 122/150/102 123/152/181
f 93/120/182 94/121/141 75/99/103 45/62/180
s 6
f 67/88/100 76/100/99 1/1/183 3/3/184
s 4
f 78/103/84 149/180/83 150/181/185 31/45/186
f 73/97/187 79/104/97 78/103/84 31/45/186
f 80/106/179 79/104/97 73/97/187 9/16/188
s 1
f 81/107/40 80/105/39 9/15/189 12/19/190
s 2
f 70/92/191 82/108/90 81/107/170 12/19/192
f 83/109/68 82/108/90 70/92/191 28/40/193
f 137/166/194 138/167/65 83/109/68 28/40/193
f 63/83/195 85/111/34 84/110/33 22/30/196
f 86/112/43 85/111/34 63/83/195 11/18/197
f 87/113/44 86/112/43 11/18/197 14/21/198
f 88/114/58 87/113/44 14/21/198 18/25/199
s 8
f 89/115/32 88/114/31 18/25/200 19/26/201
s 4
f 15/22/202 90/116/49 89/115/61 19/26/203
f 10/17/204 91/117/50 90/116/49 15/22/202
f 60/78/205 92/118/27 91/117/50 10/17/204
f 77/102/28 92/118/27 60/78/205 25/35/206
f 76/101/207 94/121/141 93/120/182 1/9/208
f 32/47/209 95/122/142 94/121/141 76/101/207
f 144/175/210 145/176/143 95/122/142 32/47/209
f 57/75/211 97/124/145 96/123/144 26/37/212
f 7/7/213 98/125/146 97/124/145 57/75/211
f 99/126/147 98/125/146 7/7/213 16/23/214
f 100/127/148 99/126/147 16/23/214 20/27/215
s 8
f 17/24/216 101/128/150 100/127/149 20/27/217
s 2
f 13/20/218 102/129/152 101/128/151 17/24/219
f 5/5/220 103/130/153 102/129/152 13/20/218
f 66/87/221 104/131/154 103/130/153 5/5/220
f 21/29/222 105/132/155 104/131/154 66/87/221
f 27/39/223 106/133/157 142/171/156 143/173/224
f 67/89/225 107/134/158 106/133/157 27/39/223
f 3/3/226 108/135/167 107/134/158 67/89/225
s 1
f 1/1/227 93/119/160 108/135/159 3/3/228
s 4
f 9/16/188 73/97/187 110/138/96 109/137/176
f 111/139/78 110/138/96 73/97/187 31/45/186
f 150/181/185 151/182/79 111/139/78 31/45/186
f 113/141/15 112/140/14 25/35/206 60/78/205
f 114/142/161 113/141/15 60/78/205 10/17/204
s 3
f 10/17/229 11/18/230 115/143/10 114/142/9
s 2
f 11/18/197 63/83/195 116/144/6 115/143/165
f 117/145/7 116/144/6 63/83/195 22/30/196
f 118/146/71 154/187/70 137/166/194 28/40/193
f 119/147/91 118/146/71 28/40/193 70/92/191
f 120/148/172 119/147/91 70/92/191 12/19/192
s 1
f 12/19/190 9/15/189 109/136/2 120/148/1
s 4
f 74/98/98 122/150/102 121/149/101 34/50/81
f 123/152/181 122/150/102 74/98/98 33/49/178
s 1
f 124/153/140 123/151/139 33/48/38 44/60/37
s 2
f 69/91/89 125/154/136 124/153/169 44/60/171
f 126/155/134 125/154/136 69/91/89 43/59/67
f 139/168/66 140/169/131 126/155/134 43/59/67
f 64/84/35 128/157/128 127/156/127 42/58/36
f 129/158/126 128/157/128 64/84/35 41/57/42
f 130/159/123 129/158/126 41/57/42 40/56/41
f 131/160/124 130/159/123 40/56/41 39/55/57
s 8
f 132/161/120 131/160/119 39/55/30 38/54/29
s 4
f 38/54/62 37/53/52 133/162/111 132/161/115
f 37/53/52 36/52/51 134/163/112 133/162/111
f 59/77/26 135/164/109 134/163/112 36/52/51
f 136/165/110 135/164/109 59/77/26 35/51/25
f 121/149/101 147/178/106 148/179/82 34/50/81
s 2
f 84/110/33 138/167/65 137/166/194 22/30/196
f 42/58/36 139/168/66 138/167/65 84/110/33
f 127/156/127 140/169/131 139/168/66 42/58/36
f 54/71/130 141/170/132 140/169/131 127/156/127
f 105/132/155 142/171/156 141/170/132 54/71/130
f 143/173/224 142/171/156 105/132/155 21/29/222
s 6
f 21/28/24 26/36/23 144/174/86 143/172/85
s 4
f 26/37/212 96/123/144 145/176/143 144/175/210
f 146/177/105 145/176/143 96/123/144 47/64/107
f 147/178/106 146/177/105 47/64/107 136/165/110
f 148/179/82 147/178/106 136/165/110 35/51/25
f 149/180/83 148/179/82 35/51/25 77/102/28
f 150/181/185 149/180/83 77/102/28 25/35/206
f 112/140/14 151/182/79 150/181/185 25/35/206
f 152/183/80 151/182/79 112/140/14 24/33/13
s 5
f 153/186/76 152/184/75 24/34/18 23/32/17
s 2
f 23/31/8 117/145/7 154/187/70 153/185/69
f 137/166/194 154/187/70 117/145/7 22/30/196
